<?xml version="1.0" encoding="utf-8"?>
<!-- Generator: Adobe Illustrator 25.4.1, SVG Export Plug-In . SVG Version: 6.00 Build 0)  -->
<svg version="1.1" id="_레이어_1" xmlns="http://www.w3.org/2000/svg" xmlns:xlink="http://www.w3.org/1999/xlink" x="0px"
	 y="0px" viewBox="0 0 223.4 210.5" style="enable-background:new 0 0 223.4 210.5;" xml:space="preserve">
<style type="text/css">
	.st0{enable-background:new    ;}
	.st1{fill:#6495ED;}
</style>
<g class="st0">
	<path class="st1" d="M33.7,124l0.3-0.1l0.8,1.2c0.3,0.4,0.7,0.7,1.4,1c0.6,0.3,1.4,0.4,2.3,0.5l16.8,1.7c2.3,0.2,4.4,0.6,6.1,1.2
		c1.7,0.6,2.8,1.8,3.3,3.4c0.3,0.9,0.2,1.8-0.2,2.6c-0.4,0.8-1.1,1.4-2.1,1.7c-0.9,0.3-1.7,0.2-2.3-0.3c-0.6-0.5-1.1-1-1.2-1.6
		c0-0.1-0.1-0.3-0.1-0.5c0.1,0,0.3,0,0.5-0.1c0.5-0.1,0.9-0.4,1.2-0.8c0.3-0.4,0.3-0.9,0.2-1.5c-0.3-1-1.1-1.7-2.6-2.2
		c-1.4-0.5-2.9-0.8-4.4-0.9c-0.4,0-0.8,0-1.1,0.1c-0.4,0.1-0.8,0.3-1.2,0.6l-9.7,8.6c-0.7,0.7-1.3,1.4-1.7,2.2
		c-0.4,0.8-0.5,1.6-0.4,2.5l-0.3,0.1l-2.5-8.7l0.3-0.1c0.2,0.4,0.5,0.7,0.9,0.9c0.4,0.2,0.8,0.2,1.3,0c0.4-0.1,0.7-0.3,1-0.5
		l7.2-6.4l-9.4-0.9c-0.3,0-0.6,0-0.8,0c-0.4,0.1-0.8,0.4-1,0.7c-0.3,0.4-0.4,0.8-0.4,1.2l0,0.8l-0.3,0.1L33.7,124z"/>
</g>
<g class="st0">
	<path class="st1" d="M47.6,94c0.7-0.4,1.4-0.5,2.2-0.3c0.8,0.2,1.6,0.6,2.1,1.4c0.6,0.8,1,1.8,1.2,2.9c0.2,1.1,0.2,2.3-0.1,3.5
		c-0.2,1.2-0.6,2.3-1.2,3.3c-0.6,1-1.4,1.8-2.3,2.4c-2,1.4-4.3,1.8-6.9,1.3c-2.7-0.5-4.7-1.8-6-3.7c-0.6-0.8-0.9-1.7-1.1-2.7
		c-0.2-1-0.2-2.1,0-3.1c0.2-1.1,0.6-2,1.2-2.9c0.6-0.9,1.3-1.6,2.1-2.1c1.4-0.9,3.1-1.4,5.1-1.2l-2.3,11.2c0.6,0.2,1.1,0.3,1.7,0.5
		c2.1,0.4,4.1,0.4,5.7-0.1c1.7-0.5,2.7-1.5,2.9-2.9c0.2-0.8,0-1.6-0.5-2.3c-0.5-0.7-1.1-1.2-1.9-1.4c-0.4-0.1-0.8,0-1.2,0.2
		c-0.4,0.2-0.7,0.5-0.9,0.9c-0.4-0.1-0.8-0.4-1.1-0.9c-0.3-0.5-0.4-1.1-0.3-1.7C46.4,95,46.9,94.3,47.6,94z M37.3,101.7
		c0.9,0.7,2.1,1.3,3.4,1.8L42,97c-1.8-0.2-3.1-0.1-4,0.3c-1,0.4-1.6,1-1.8,1.8C36.1,100.1,36.4,100.9,37.3,101.7z"/>
</g>
<g class="st0">
	<path class="st1" d="M69.9,70.8l0.3,0.2l-4,5L64.8,75c0.2,0.9,0.2,1.9-0.1,3.1c-0.1,0.6-0.5,1.3-1.1,2.1c-1.3,1.6-2.5,2.6-3.9,3
		c-1.3,0.4-2.5,0.2-3.7-0.7c-0.5-0.4-0.9-1-1.1-1.8c-0.2-0.8-0.2-1.7-0.1-2.7c0.2-1.1,0.6-2.4,1.3-3.7c0.7-1.4,1.6-2.7,2.6-4
		L57,68.8c-1.3-1-2.3-1.6-3.1-1.7c-0.8-0.1-1.6,0.3-2.3,1.3c-0.5,0.7-0.8,1.3-0.8,2c0,0.7,0.3,1.2,0.9,1.7c0.3,0.2,0.7,0.4,1.1,0.4
		s0.9-0.1,1.2-0.4c0.4,0.3,0.5,0.7,0.5,1.3c0,0.6-0.2,1.1-0.5,1.6c-0.6,0.8-1.3,1.2-2.1,1.2s-1.5-0.2-2.1-0.7c-0.6-0.5-1-1.2-1-2.1
		s0.1-1.8,0.5-2.8c0.4-1,0.9-1.9,1.6-2.8c1.3-1.7,2.7-2.7,4.3-3c1.5-0.4,2.9,0,4.2,1l7.3,5.8c0.4,0.3,0.8,0.4,1.2,0.4
		c0.4,0,0.8-0.1,1.2-0.4L69.9,70.8z M59.6,70.8c-1.3,1.6-2,3.1-2,4.4c0,1.3,0.5,2.5,1.8,3.5c0.7,0.6,1.4,0.8,2.2,0.8
		c0.8,0,1.4-0.3,1.8-0.9c0.3-0.4,0.5-0.9,0.6-1.3c0.1-0.5,0.1-1.1,0-1.7c-0.1-0.6-0.3-1.2-0.5-1.7L59.6,70.8z"/>
</g>
<g class="st0">
	<path class="st1" d="M95.4,57.9l0.1,0.3l-8,3.6l-0.1-0.3l0.7-0.6c0.3-0.3,0.6-0.6,0.7-1c0.1-0.4,0.1-0.8-0.1-1.2l-3.8-8.5
		c-0.6-1.4-1.3-2.3-2.2-2.8c-0.8-0.5-1.7-0.6-2.6-0.2c-0.5,0.2-1,0.7-1.5,1.3c-0.4,0.6-0.7,1.3-0.9,2c-0.1,0.7-0.1,1.4,0.2,2
		l4.1,9.2c0.2,0.4,0.5,0.7,0.9,0.9c0.4,0.2,0.8,0.2,1.2,0.2l0.9-0.2l0.1,0.3l-8,3.6l-0.1-0.3l0.9-0.6c0.4-0.3,0.6-0.6,0.7-1.1
		c0.1-0.4,0.1-0.9-0.1-1.3l-8.4-18.6c-0.2-0.4-0.5-0.7-0.9-0.9c-0.4-0.2-0.8-0.3-1.3-0.2l-1.1,0.2l-0.1-0.3l5.8-2.6l4.1,9.1
		c0.2-0.8,0.6-1.6,1.2-2.3c0.6-0.7,1.4-1.3,2.2-1.7c0.8-0.4,1.6-0.6,2.4-0.7c0.8-0.1,1.5,0,2.2,0.2c1.5,0.5,2.6,1.4,3.3,2.8l4,8.8
		c0.2,0.4,0.5,0.7,0.9,0.9s0.8,0.3,1.3,0.2L95.4,57.9z"/>
</g>
<g class="st0">
	<path class="st1" d="M119.3,47.4l-0.1,1.4l-11.5-0.6l0.1-1.4L119.3,47.4z"/>
</g>
<g class="st0">
	<path class="st1" d="M135.6,58.3c0.7-0.3,1.5-0.2,2.2,0.2c0.8,0.5,1.3,1,1.3,1.6c0.1,0.6-0.1,1.1-0.4,1.6c-0.5-0.2-1-0.2-1.5-0.1
		c-0.5,0.1-0.9,0.4-1.1,0.8c-0.3,0.5-0.3,1.2,0.1,1.9c0.4,0.7,1.1,1.4,2.1,2c1,0.6,2.1,0.9,3.1,0.9s1.8-0.4,2.3-1.2
		c0.3-0.5,0.4-1.1,0.2-1.7c-0.1-0.6-0.5-1.4-1.1-2.3c-0.2-0.3-0.5-0.8-1-1.4c-0.3-0.4-0.6-0.7-0.7-0.9c-1.5-1.9-2.3-3.5-2.5-4.9
		c-0.2-0.8,0-1.7,0.4-2.5c0.3-0.5,0.7-0.8,1.2-1.1c0.5-0.3,1.1-0.4,1.8-0.5c0.6-0.1,1.3,0,2.2,0.2s1.7,0.6,2.5,1
		c1.3,0.7,2.3,1.5,3,2.4c0.7,0.9,1.1,1.7,1.3,2.5c0.1,0.8,0,1.6-0.3,2.2c-0.3,0.5-0.7,0.8-1.3,1c-0.6,0.2-1.2,0.1-1.7-0.2
		c-0.2-0.1-0.3-0.2-0.4-0.3c-0.4-0.3-0.6-0.8-0.7-1.3c-0.1-0.5,0-1,0.2-1.2c0.4,0.2,0.8,0.2,1.2,0.1c0.4-0.1,0.7-0.4,1-0.7
		c0.3-0.5,0.3-1.1-0.1-1.8c-0.4-0.7-1-1.2-1.8-1.7c-0.9-0.5-1.7-0.7-2.7-0.6c-0.9,0.1-1.6,0.4-2,1.1c-0.3,0.5-0.3,1-0.1,1.6
		c0.2,0.6,0.5,1.3,1.1,2.2c0.3,0.4,0.9,1.2,1.8,2.4c1.5,1.9,2.3,3.6,2.5,5.1c0.2,0.9,0,1.7-0.5,2.6c-0.3,0.5-0.7,0.9-1.3,1.2
		c-0.6,0.3-1.2,0.5-2,0.6c-0.7,0.1-1.6,0-2.5-0.2c-1-0.2-1.9-0.6-2.8-1.1c-1-0.6-2-1.3-2.8-2.2c-0.9-0.9-1.5-1.8-1.9-2.8
		s-0.3-1.9,0.2-2.8C134.3,59,134.9,58.6,135.6,58.3z"/>
</g>
<g class="st0">
	<path class="st1" d="M173.1,80.5c0.2,1.2,0.1,2.4-0.2,3.6c-0.6,1.9-1.9,3.5-3.8,4.7c-2.6,1.6-5.2,2.1-7.8,1.3
		c-0.9-0.3-1.7-0.8-2.5-1.4c-0.8-0.6-1.4-1.3-1.9-2.2c-0.7-1.1-1.1-2.2-1.2-3.4c-0.2-1.2-0.1-2.4,0.3-3.5c0.6-2,1.8-3.5,3.7-4.7
		c2.7-1.7,5.3-2.1,7.9-1.2c0.9,0.3,1.7,0.7,2.4,1.3c0.7,0.6,1.4,1.3,1.9,2.1C172.4,78.1,172.9,79.2,173.1,80.5z M167.9,75.7
		c-1.3,0.1-2.9,0.7-4.7,1.8c-0.3,0.2-0.8,0.5-1.4,1c-1.1,0.9-2.1,1.7-2.8,2.6c-0.7,0.9-1.2,1.7-1.5,2.5c-0.4,1.2-0.4,2.3,0.1,3
		c0.6,0.9,1.7,1.4,3.2,1.3c1.3-0.1,2.8-0.7,4.6-1.8c0.3-0.2,0.8-0.5,1.4-1c1.1-0.8,2-1.7,2.8-2.6c0.7-0.9,1.2-1.7,1.5-2.5
		c0.4-1.2,0.3-2.3-0.2-3.1C170.5,76,169.4,75.6,167.9,75.7z"/>
</g>
<g class="st0">
	<path class="st1" d="M181.2,118c-0.4-0.2-0.8-0.3-1.2-0.3l-11.7,1.1c-0.5,0-0.8,0.2-1.2,0.5c-0.3,0.3-0.5,0.7-0.6,1.2l-0.1,1.1
		l-0.3,0l-0.6-6.4l1.7-0.2c-0.7-0.5-1.4-1.2-1.8-2c-0.5-0.8-0.8-1.7-0.8-2.6c-0.1-1.1,0-2.2,0.4-3.2c0.4-1,0.9-1.8,1.7-2.4
		c0.8-0.6,1.7-1,2.7-1.1l9.2-0.9c0.5,0,0.8-0.2,1.2-0.5c0.3-0.3,0.5-0.7,0.6-1.2l0.1-1.1l0.3,0l0.8,8.7l-0.3,0l-0.3-0.9
		c-0.2-0.4-0.4-0.8-0.8-1c-0.3-0.2-0.7-0.3-1.2-0.3l-8.9,0.8c-1.5,0.1-2.6,0.5-3.4,1.1s-1.1,1.4-1,2.4c0.1,0.6,0.3,1.2,0.7,1.8
		s1,1.1,1.6,1.5c0.6,0.4,1.3,0.5,2,0.5l9.6-0.9c0.5,0,0.8-0.2,1.1-0.5c0.3-0.3,0.5-0.7,0.6-1.1l0.1-0.9l0.3,0l0.8,8.7l-0.3,0
		l-0.3-1.1C181.9,118.6,181.6,118.3,181.2,118z"/>
</g>
<g class="st0">
	<path class="st1" d="M162.2,135.8c-0.1,0.5,0,0.9,0.2,1.3c0.2,0.4,0.5,0.7,1,0.8l18.9,7.6c0.4,0.2,0.8,0.2,1.3,0.1
		c0.4-0.1,0.8-0.4,1-0.8l0.6-0.9l0.3,0.1l-2.4,5.9l-21.1-8.5c-0.4-0.2-0.8-0.2-1.3-0.1c-0.4,0.1-0.8,0.4-1,0.8L159,143l-0.3-0.1
		l3.4-8.3l0.3,0.1L162.2,135.8z"/>
</g>
</svg>
